<svg width="124" height="17" viewBox="0 0 124 17" fill="none" xmlns="http://www.w3.org/2000/svg">
<g id="LOGO" clip-path="url(#clip0_884_3328)">
<path id="Vector" fill-rule="evenodd" clip-rule="evenodd" d="M115.889 4.30922H110.813C109.959 4.36399 109.722 4.58916 109.722 5.69064V8.73038H115.889V4.30922ZM118.592 1.875V15.1263H115.889V11.3167H109.722V15.1263H107.019V4.73825C107.019 2.90346 107.715 1.875 109.722 1.875H118.589H118.592ZM104.318 4.73521V11.907C104.318 14.1891 103.113 15.1233 101.614 15.1233H93.0899V1.875H101.614C103.918 1.875 104.318 3.43595 104.318 4.73825M101.583 5.53546C101.583 4.80824 101.169 4.30922 100.441 4.30922H95.7934V12.5886H100.441C101.5 12.5308 101.583 11.8553 101.583 11.3167V5.53242V5.53546ZM38 1.875H40.7035V7.09641H46.7501V1.875H49.4536V15.1233H46.7501V9.71624H40.7035V15.1233H38V1.875ZM54.0842 1.875L57.4729 7.29114L60.8187 1.875H64.1018L58.8232 10.3461V15.1263H56.1197V10.3461L50.804 1.875H54.0842ZM79.2724 1.875H87.9826C89.2244 1.875 90.4263 2.06061 90.3892 4.73825V15.1233H87.6856V5.6876C87.6856 4.54656 87.5572 4.30618 86.7178 4.30618H81.976V15.1233H79.2724V1.875ZM123.999 15.1293H121.296V1.875H123.999V15.1263V15.1293ZM65.4521 15.1293H74.1594C75.8923 15.1293 76.6032 14.5969 76.5689 11.9344V1.875H73.8654V11.335C73.8654 12.47 73.7369 12.6069 72.8976 12.6069H68.1557V1.875H65.4521V15.1233V15.1293Z" fill="white"/>
<path id="Vector_2" fill-rule="evenodd" clip-rule="evenodd" d="M18.9283 10.464C19.1681 11.7785 18.52 12.8678 17.9862 13.9267C17.3895 14.9095 16.4074 15.7585 15.2255 15.6307C12.5734 15.5881 9.98119 15.1529 7.57742 14.3801C7.46893 14.3466 7.36045 14.2736 7.3005 14.1671C7.25196 14.018 7.32048 13.8811 7.4204 13.7867C9.61577 11.8911 12.228 11.0148 14.8087 10.0928C15.7708 9.79766 16.7957 9.47817 17.8777 9.62726C18.323 9.69116 18.7712 10.0198 18.9311 10.464M27.9781 4.85315C29.2085 5.93333 30.3219 7.40299 29.9451 9.18302C29.3284 11.8089 26.6477 13.2056 24.5123 14.0941C23.3504 14.5079 22.1771 14.9308 20.9067 15.0586C20.8267 15.0495 20.6983 15.0708 20.6783 14.943L20.7068 14.7939C22.5139 12.6244 23.8843 10.1902 25.0862 7.72249C25.6428 6.61187 26.1596 5.46779 26.6363 4.345C26.7048 4.2598 26.7762 4.22025 26.8562 4.18678C27.3015 4.22938 27.6213 4.60059 27.9781 4.85315ZM10.6464 2.05988L10.6064 2.2181C7.99422 5.38259 6.27561 9.05522 4.64835 12.7066C4.33146 13.023 4.02314 12.6001 3.7348 12.4631C2.28454 11.4468 0.97417 9.80679 1.35101 7.85941C1.95624 5.31869 4.40854 3.96465 6.45546 3.04269C7.66592 2.55585 8.92776 2.16333 10.2581 1.94121C10.398 1.94121 10.575 1.91991 10.6464 2.05683M23.6073 2.56498C23.7558 2.65017 23.9357 2.6806 24.0242 2.84187C24.1041 3.02139 23.9442 3.13702 23.8557 3.25569C21.8002 4.97181 19.445 5.9242 17.0441 6.75792C15.8222 7.07437 14.5918 7.64642 13.23 7.32997C12.9131 7.24477 12.6248 7.02265 12.4449 6.69403C12.108 5.69904 12.5648 4.66145 12.9616 3.79426C13.4869 2.70494 14.4205 1.42394 15.7137 1.40264C18.4943 1.38134 21.1179 1.82558 23.6102 2.56802M27.0474 2.65322C29.1543 3.8825 31.5381 6.03983 31.2897 8.9183C31.0014 11.5868 28.6661 13.449 26.5821 14.5718C20.4927 17.6724 11.9425 17.7697 5.65611 15.0586C3.53211 14.1154 1.14832 12.4966 0.251896 10.0624C-0.433266 8.06328 0.400348 5.97593 1.80207 4.59147C4.72543 1.75256 8.45956 0.778866 12.305 0.218995C16.476 -0.319576 20.8667 0.155097 24.6008 1.5213C25.4344 1.84992 26.2595 2.20897 27.0446 2.65322" fill="white"/>
</g>
<defs>
<clipPath id="clip0_884_3328">
<rect width="124" height="17" fill="white"/>
</clipPath>
</defs>
</svg>
