<svg width="124" height="17" viewBox="0 0 124 17" fill="none" xmlns="http://www.w3.org/2000/svg">
<g clip-path="url(#clip0_871_119184)">
<path fill-rule="evenodd" clip-rule="evenodd" d="M115.893 4.30922H110.817C109.963 4.36399 109.726 4.58916 109.726 5.69064V8.73038H115.893V4.30922ZM118.596 1.875V15.1263H115.893V11.3167H109.726V15.1263H107.023V4.73825C107.023 2.90346 107.719 1.875 109.726 1.875H118.593H118.596ZM104.322 4.73521V11.907C104.322 14.1891 103.117 15.1233 101.618 15.1233H93.0938V1.875H101.618C103.922 1.875 104.322 3.43595 104.322 4.73825M101.587 5.53546C101.587 4.80824 101.173 4.30922 100.445 4.30922H95.7973V12.5886H100.445C101.504 12.5308 101.587 11.8553 101.587 11.3167V5.53242V5.53546ZM38.0039 1.875H40.7074V7.09641H46.754V1.875H49.4575V15.1233H46.754V9.71624H40.7074V15.1233H38.0039V1.875ZM54.0881 1.875L57.4768 7.29114L60.8226 1.875H64.1057L58.8271 10.3461V15.1263H56.1236V10.3461L50.8079 1.875H54.0881ZM79.2763 1.875H87.9865C89.2283 1.875 90.4302 2.06061 90.3931 4.73825V15.1233H87.6896V5.6876C87.6896 4.54656 87.5611 4.30618 86.7218 4.30618H81.9799V15.1233H79.2763V1.875ZM124.003 15.1293H121.3V1.875H124.003V15.1263V15.1293ZM65.4561 15.1293H74.1633C75.8962 15.1293 76.6071 14.5969 76.5728 11.9344V1.875H73.8693V11.335C73.8693 12.47 73.7408 12.6069 72.9015 12.6069H68.1596V1.875H65.4561V15.1233V15.1293Z" fill="#032D5D"/>
<path fill-rule="evenodd" clip-rule="evenodd" d="M18.9244 10.464C19.1642 11.7785 18.5161 12.8678 17.9823 13.9267C17.3856 14.9095 16.4035 15.7585 15.2216 15.6307C12.5695 15.5881 9.97729 15.1529 7.57351 14.3801C7.46503 14.3466 7.35654 14.2736 7.29659 14.1671C7.24806 14.018 7.31657 13.8811 7.41649 13.7867C9.61187 11.8911 12.224 11.0148 14.8048 10.0928C15.7669 9.79766 16.7918 9.47817 17.8738 9.62726C18.3191 9.69116 18.7673 10.0198 18.9272 10.464M27.9742 4.85315C29.2046 5.93333 30.318 7.40299 29.9412 9.18302C29.3245 11.8089 26.6438 13.2056 24.5084 14.0941C23.3465 14.5079 22.1732 14.9308 20.9028 15.0586C20.8228 15.0495 20.6944 15.0708 20.6744 14.943L20.7029 14.7939C22.51 12.6244 23.8804 10.1902 25.0822 7.72249C25.6389 6.61187 26.1557 5.46779 26.6324 4.345C26.7009 4.2598 26.7723 4.22025 26.8522 4.18678C27.2976 4.22938 27.6173 4.60059 27.9742 4.85315ZM10.6425 2.05988L10.6025 2.2181C7.99032 5.38259 6.2717 9.05522 4.64444 12.7066C4.32756 13.023 4.01923 12.6001 3.73089 12.4631C2.28064 11.4468 0.970264 9.80679 1.3471 7.85941C1.95233 5.31869 4.40464 3.96465 6.45156 3.04269C7.66201 2.55585 8.92385 2.16333 10.2542 1.94121C10.3941 1.94121 10.5711 1.91991 10.6425 2.05683M23.6034 2.56498C23.7519 2.65017 23.9317 2.6806 24.0202 2.84187C24.1002 3.02139 23.9403 3.13702 23.8518 3.25569C21.7963 4.97181 19.4411 5.9242 17.0402 6.75792C15.8183 7.07437 14.5879 7.64642 13.2261 7.32997C12.9092 7.24477 12.6209 7.02265 12.441 6.69403C12.1041 5.69904 12.5609 4.66145 12.9577 3.79426C13.483 2.70494 14.4166 1.42394 15.7098 1.40264C18.4904 1.38134 21.114 1.82558 23.6063 2.56802M27.0435 2.65322C29.1504 3.8825 31.5342 6.03983 31.2858 8.9183C30.9975 11.5868 28.6622 13.449 26.5782 14.5718C20.4888 17.6724 11.9386 17.7697 5.6522 15.0586C3.5282 14.1154 1.14441 12.4966 0.24799 10.0624C-0.437172 8.06328 0.396441 5.97593 1.79817 4.59147C4.72152 1.75256 8.45566 0.778866 12.3011 0.218995C16.472 -0.319576 20.8628 0.155097 24.5969 1.5213C25.4305 1.84992 26.2556 2.20897 27.0407 2.65322" fill="#032D5D"/>
</g>
<defs>
<clipPath id="clip0_871_119184">
<rect width="124" height="17" fill="white"/>
</clipPath>
</defs>
</svg>
